<?xml version="1.0" encoding="UTF-8"?>
<svg version="1.1" xmlns="http://www.w3.org/2000/svg" width="60" height="60">
<path d="M0 0 C19.8 0 39.6 0 60 0 C60 19.8 60 39.6 60 60 C40.2 60 20.4 60 0 60 C0 40.2 0 20.4 0 0 Z " fill="#FCFCFC" transform="translate(0,0)"/>
<path d="M0 0 C19.8 0 39.6 0 60 0 C60 19.8 60 39.6 60 60 C40.2 60 20.4 60 0 60 C0 40.2 0 20.4 0 0 Z M6 9 C5.54228428 10.96786763 5.54228428 10.96786763 5.59594727 13.1484375 C5.58326309 13.97939941 5.57057892 14.81036133 5.55751038 15.66650391 C5.56044601 16.56030762 5.56338165 17.45411133 5.56640625 18.375 C5.5611644 19.29587402 5.55592255 20.21674805 5.55052185 21.16552734 C5.54409902 23.11229443 5.54544202 25.05910031 5.55395508 27.00585938 C5.56246856 29.98898167 5.53370217 32.97019181 5.50195312 35.953125 C5.50034116 37.84374942 5.50091855 39.73437725 5.50390625 41.625 C5.49267227 42.51880371 5.48143829 43.41260742 5.46986389 44.33349609 C5.46304279 48.99915363 5.46304279 48.99915363 7.46850586 53.06103516 C11.30838217 54.48529635 14.93467844 54.42776595 19 54.3984375 C19.87269531 54.40130768 20.74539062 54.40417786 21.64453125 54.40713501 C23.48698578 54.40917367 25.32946205 54.40365764 27.171875 54.39111328 C29.99007621 54.37505654 32.80684333 54.39096838 35.625 54.41015625 C37.41666983 54.40817378 39.20833876 54.40433003 41 54.3984375 C42.26263672 54.40754654 42.26263672 54.40754654 43.55078125 54.4168396 C46.82153421 54.37756949 49.44993825 54.20420246 52.52929688 53.06103516 C55.01784973 49.57359107 54.56903906 45.79646137 54.53125 41.625 C54.5350769 40.70412598 54.53890381 39.78325195 54.54284668 38.83447266 C54.54556842 36.88768419 54.53818889 34.94085932 54.52148438 32.99414062 C54.50007815 30.01089095 54.5212768 27.03004959 54.546875 24.046875 C54.54423177 22.15624467 54.53910689 20.26561585 54.53125 18.375 C54.53934692 17.48119629 54.54744385 16.58739258 54.55578613 15.66650391 C54.53980578 11.00563422 54.53980578 11.00563422 52.54516602 6.93896484 C48.62694784 5.49345241 44.89127477 5.57252083 40.74609375 5.6015625 C39.84883072 5.59869232 38.95156769 5.59582214 38.02711487 5.59286499 C36.1333859 5.5908263 34.23963578 5.59634254 32.34594727 5.60888672 C29.44434693 5.62496207 26.54413554 5.60902191 23.64257812 5.58984375 C21.80208026 5.59182585 19.96158325 5.59566883 18.12109375 5.6015625 C17.25230087 5.59548981 16.383508 5.58941711 15.48838806 5.5831604 C14.68067459 5.59261688 13.87296112 5.60207336 13.04077148 5.61181641 C12.33113754 5.61420319 11.6215036 5.61658997 10.8903656 5.61904907 C8.37909358 6.12512652 7.5060677 6.94685241 6 9 Z " fill="#245331" transform="translate(0,0)"/>
<path d="M0 0 C3.09703328 1.36892937 5.11761608 2.92117359 7.4375 5.375 C10.13682006 8.16719989 12.95665573 10.58322661 16 13 C17.2263757 15.45275141 17.11415314 17.0505781 17.09765625 19.7890625 C17.09443359 20.73007812 17.09121094 21.67109375 17.08789062 22.640625 C17.07532227 24.11789063 17.07532227 24.11789063 17.0625 25.625 C17.05798828 26.61757813 17.05347656 27.61015625 17.04882812 28.6328125 C17.03702145 31.0886016 17.020554 33.54427104 17 36 C15.35 36 13.7 36 12 36 C12.020625 34.72125 12.04125 33.4425 12.0625 32.125 C12.36101058 21.06974492 12.36101058 21.06974492 7.25 11.75 C4.76644653 9.60769815 3.76210456 8.94589998 0.46875 9.1796875 C-4.1178963 10.70373137 -6.73930866 12.65532904 -9 17 C-10.1622107 23.24810041 -10.04428599 29.66710324 -10 36 C-11.65 36 -13.3 36 -15 36 C-15.14575327 32.60462148 -15.23421542 29.21005098 -15.3125 25.8125 C-15.35439453 24.85279297 -15.39628906 23.89308594 -15.43945312 22.90429688 C-15.56353109 15.73259042 -15.56353109 15.73259042 -12.8125 12.15625 C-11.884375 11.4446875 -10.95625 10.733125 -10 10 C-9.11699219 9.11699219 -8.23398437 8.23398437 -7.32421875 7.32421875 C-4.8828125 4.8828125 -2.44140625 2.44140625 0 0 Z " fill="#144824" transform="translate(29,10)"/>
<path d="M0 0 C2.64 0 5.28 0 8 0 C8 2.64 8 5.28 8 8 C5.36 8 2.72 8 0 8 C0 5.36 0 2.72 0 0 Z " fill="#144521" transform="translate(26,30)"/>
<path d="M0 0 C0 3 0 3 -2.625 5.91796875 C-3.74249406 7.01550756 -4.86785643 8.10507895 -6 9.1875 C-6.57234375 9.74630859 -7.1446875 10.30511719 -7.734375 10.88085938 C-9.14962788 12.26073093 -10.57397155 13.63126734 -12 15 C-12.66 14.67 -13.32 14.34 -14 14 C-9.33333333 9.33333333 -4.66666667 4.66666667 0 0 Z " fill="#1D4C2A" transform="translate(28,11)"/>
<path d="M0 0 C0.33 0 0.66 0 1 0 C1 1.98 1 3.96 1 6 C-0.98 6 -2.96 6 -5 6 C-3.35830472 3.97945196 -1.69088222 1.97956942 0 0 Z " fill="#000000" transform="translate(59,54)"/>
<path d="M0 0 C1.98 0 3.96 0 6 0 C6 1.98 6 3.96 6 6 C3.97945196 4.35830472 1.97956942 2.69088222 0 1 C0 0.67 0 0.34 0 0 Z " fill="#000000" transform="translate(54,0)"/>
</svg>
