<?xml version="1.0" encoding="UTF-8"?>
<svg version="1.1" xmlns="http://www.w3.org/2000/svg" width="933" height="933">
<path d="M0 0 C2.2806114 -0.00418316 4.56122073 -0.00966602 6.84182626 -0.01631981 C13.04929652 -0.03066437 19.25663277 -0.02656435 25.46411002 -0.019153 C31.4901995 -0.01488608 37.51625685 -0.02475832 43.54233667 -0.03406062 C56.6151182 -0.05364592 69.68785991 -0.05609058 82.76065261 -0.05086542 C94.20452852 -0.04629406 105.64838876 -0.04692502 117.09226418 -0.05270576 C118.63208507 -0.05346266 120.17190596 -0.05421864 121.71172685 -0.05497371 C124.03260221 -0.05611901 126.35347756 -0.05726889 128.67435291 -0.05843295 C150.22956191 -0.06912561 171.78476572 -0.07387599 193.33997631 -0.06596279 C194.15115602 -0.06566562 194.96233573 -0.06536844 195.79809664 -0.06506227 C202.38385762 -0.06261377 208.96961854 -0.06000196 215.55537946 -0.05737813 C241.23049206 -0.04728021 266.90553922 -0.0556275 292.5806427 -0.07887268 C321.48315279 -0.10499801 350.38562351 -0.11777907 379.28814584 -0.11068493 C382.3753788 -0.10996896 385.46261177 -0.10929457 388.54984474 -0.10864449 C389.30989745 -0.10847468 390.06995016 -0.10830487 390.85303477 -0.10812991 C402.28041738 -0.10583576 413.7077632 -0.11376151 425.13513756 -0.12693596 C438.14553076 -0.14190948 451.15583827 -0.14260765 464.16622975 -0.12486505 C470.794286 -0.11619603 477.42221459 -0.11412368 484.05027199 -0.1295166 C490.13570807 -0.14347347 496.22084291 -0.13846078 502.30626205 -0.11927737 C504.48979632 -0.11555048 506.67335536 -0.11834173 508.85686734 -0.12888902 C556.08870173 -0.34053787 602.6875272 14.63041759 639.65559387 44.38768005 C640.67653137 45.20494568 641.69746887 46.0222113 642.74934387 46.86424255 C656.29383202 57.91037345 668.35098438 70.27020071 678.65559387 84.38768005 C679.43418762 85.4447113 680.21278137 86.50174255 681.01496887 87.59080505 C697.64661106 110.87510411 709.23373227 137.18461501 715.46809387 165.07518005 C715.76054993 166.37213806 715.76054993 166.37213806 716.05891418 167.69529724 C719.49262914 184.07660053 719.94842724 200.41773359 719.91629028 217.08779907 C719.91931679 219.33495962 719.92320876 221.58211914 719.92788285 223.82927686 C719.93810724 229.95808015 719.93599528 236.08682457 719.93170226 242.21563256 C719.92947987 248.1614013 719.93666084 254.10715711 719.94346251 260.05292075 C719.95864963 273.70259831 719.96041303 287.35225722 719.95793948 301.00194146 C719.95610207 311.54765596 719.9578758 322.0933644 719.96216393 332.63907814 C719.96276634 334.15775736 719.96336754 335.67643659 719.96396753 337.19511581 C719.96487485 339.48403019 719.96578352 341.77294457 719.96669988 344.06185895 C719.97512152 365.32520406 719.97947058 386.58854689 719.97529316 407.85189342 C719.97513678 408.65238395 719.97498041 409.45287448 719.97481929 410.2776223 C719.97401359 414.33420365 719.97316782 418.39078499 719.97230599 422.44736632 C719.9721349 423.25291878 719.97196382 424.05847124 719.97178754 424.88843439 C719.97144088 426.51745468 719.97109235 428.14647497 719.97074196 429.77549525 C719.9653866 455.11441763 719.97331315 480.45330519 719.99177551 505.79222107 C720.01252695 534.30573529 720.02321222 562.81922795 720.01920003 591.33275014 C720.01880472 594.3775678 720.01844317 597.42238547 720.01810265 600.46720314 C720.01801191 601.21683242 720.01792118 601.96646169 720.0178277 602.73880701 C720.01666547 614.01730896 720.02328139 625.29578902 720.03391457 636.57428551 C720.04600702 649.41318012 720.0474792 662.25202676 720.0351244 675.09092214 C720.02910896 681.63350877 720.02808335 688.17602091 720.0401268 694.71860313 C720.05104971 700.72253684 720.0478067 706.72629956 720.03386512 712.73022548 C720.03123571 714.88755203 720.03352856 717.04489227 720.04160098 719.20220532 C720.24802683 778.54736885 698.34615943 832.12791263 656.65559387 874.38768005 C626.39338967 904.66020913 584.96305421 925.24001916 542.65559387 931.38768005 C541.5264658 931.55332637 540.39733773 931.7189727 539.23399365 931.8896386 C527.16850271 933.54015825 515.23727012 933.67178757 503.07572937 933.64837646 C500.82943188 933.6514024 498.58313541 933.65529409 496.33684075 933.65996903 C490.20577814 933.6702009 484.07477432 933.66807952 477.94370699 933.66378844 C471.99716552 933.66156722 466.05063701 933.66874531 460.10410064 933.67554869 C446.45101734 933.69074123 432.79795268 933.69249862 419.1448627 933.69002566 C408.59626387 933.68818863 398.0476711 933.6899612 387.49907303 933.69425011 C385.98025695 933.69485252 384.46144087 933.69545372 382.94262479 933.69605371 C380.65352651 933.69696103 378.36442823 933.6978697 376.07532996 933.69878606 C354.80805699 933.70720862 333.54078629 933.71155616 312.27351189 933.70737934 C311.47275534 933.70722297 310.6719988 933.70706659 309.8469769 933.70690547 C305.78900473 933.70609977 301.73103256 933.70525399 297.6730604 933.70439217 C296.8672256 933.70422108 296.0613908 933.70405 295.23113676 933.70387372 C293.6015448 933.70352707 291.97195285 933.70317854 290.34236089 933.70282814 C264.99688833 933.69747327 239.65145057 933.70539756 214.3059845 933.72386169 C185.78771651 933.7446132 157.26947008 933.75529834 128.75119412 933.75128621 C125.70579919 933.7508909 122.66040425 933.75052935 119.61500931 933.75018883 C118.49034564 933.75005273 118.49034564 933.75005273 117.3429615 933.74991388 C106.06181644 933.74875161 94.78069327 933.75536794 83.49955368 933.76600075 C70.65697505 933.77809339 57.81444438 933.77956522 44.97186498 933.76721058 C38.42726004 933.7611951 31.88272957 933.76016961 25.33812904 933.77221298 C19.33230503 933.78313587 13.32665196 933.7798929 7.32083572 933.7659513 C5.16280634 933.76332188 3.00476327 933.7656148 0.84674738 933.77368716 C-17.97285133 933.83912722 -36.66659307 932.29395323 -54.96940613 927.70018005 C-56.51567688 927.31781189 -56.51567688 927.31781189 -58.09318542 926.92771912 C-93.74556032 917.75503402 -124.89229492 898.65052741 -151.34440613 873.38768005 C-152.73272644 872.07863708 -152.73272644 872.07863708 -154.14909363 870.7431488 C-187.89019979 838.10125714 -211.53355756 788.16462664 -213.43789425 741.07599428 C-213.47397235 738.61766993 -213.4809069 736.16108755 -213.47583389 733.7025032 C-213.47788653 732.76473948 -213.47993916 731.82697576 -213.482054 730.86079496 C-213.48769942 727.72474411 -213.48626978 724.58873751 -213.48484802 721.4526825 C-213.48743308 719.17886643 -213.49044663 716.90505082 -213.49385142 714.63123584 C-213.50190838 708.38704029 -213.50371027 702.14285626 -213.50444889 695.89865613 C-213.50611141 689.85419569 -213.51243112 683.80974113 -213.5185273 677.76528397 C-213.5345663 661.57553331 -213.54048854 645.38578363 -213.54527605 629.19602645 C-213.54761446 621.53118632 -213.55121742 613.86634694 -213.55497143 606.20150739 C-213.5678061 579.94427694 -213.57852454 553.6870469 -213.58197403 527.42981339 C-213.58219566 525.78234861 -213.58241744 524.13488383 -213.58263938 522.48741905 C-213.58286002 520.83605674 -213.5830805 519.18469442 -213.58330083 517.53333211 C-213.58374337 514.22062127 -213.58419049 510.90791043 -213.5846405 507.59519958 C-213.58474989 506.77384349 -213.58485928 505.9524874 -213.58497199 505.10624173 C-213.5886002 478.49166136 -213.60451178 451.87710826 -213.62783087 425.26253833 C-213.65246159 397.09926727 -213.6661484 368.93601178 -213.66734195 340.77272964 C-213.66751339 337.67725483 -213.66772881 334.58178003 -213.66797638 331.48630524 C-213.66806003 330.34308349 -213.66806003 330.34308349 -213.66814538 329.17676636 C-213.6692931 316.94386199 -213.6802915 304.71098575 -213.69486343 292.47809086 C-213.70927461 280.1666159 -213.71243948 267.85517675 -213.70442346 255.54369566 C-213.70037687 248.88192823 -213.70139475 242.22023486 -213.7154808 235.55847359 C-213.72828331 229.4475826 -213.72696674 223.33685572 -213.71489009 217.22596475 C-213.71294403 215.0273536 -213.7159604 212.82873055 -213.72473446 210.63013604 C-213.79224273 192.55452146 -212.21579768 174.9335188 -207.65690613 157.38768005 C-207.40054382 156.39260437 -207.14418152 155.39752869 -206.88005066 154.37229919 C-200.72101851 131.30249197 -190.58644476 108.63821557 -176.34440613 89.38768005 C-175.9607489 88.86560974 -175.57709167 88.34353943 -175.18180847 87.8056488 C-161.7601383 69.6334628 -145.89699485 52.39711727 -127.34440613 39.38768005 C-126.80235535 38.99596619 -126.26030457 38.60425232 -125.701828 38.20066833 C-104.83712217 23.15656265 -81.20232742 12.47935021 -56.34440613 6.07518005 C-55.45696716 5.844599 -54.5695282 5.61401794 -53.65519714 5.37644958 C-35.88303843 1.07905099 -18.21680554 -0.05515815 0 0 Z " fill="#FEFEFE" transform="translate(213.3444061279297,-0.3876800537109375)"/>
<path d="M0 0 C1.05960938 0.52464844 2.11921875 1.04929687 3.2109375 1.58984375 C22.7424825 12.07331082 38.35454004 31.93999161 45 53 C45.29777344 53.928125 45.59554687 54.85625 45.90234375 55.8125 C48.06653521 63.95065773 48.28187581 71.86368469 48.3125 80.25 C48.31797852 81.35085938 48.32345703 82.45171875 48.32910156 83.5859375 C48.11948362 107.58357751 37.66416475 128.70213485 21.3046875 145.8203125 C2.82441357 163.43853283 -21.02390892 171.71485897 -46.2890625 171.27734375 C-60.29855676 170.687995 -75.25621867 166.82918755 -87 159 C-87 185.07 -87 211.14 -87 238 C-101.85 238 -116.7 238 -132 238 C-132.04521047 216.17238385 -132.08202619 194.34480583 -132.10362434 172.51715469 C-132.11392091 162.38137379 -132.1279502 152.24562413 -132.15087891 142.10986328 C-132.17086246 133.27178575 -132.1837282 124.43373086 -132.18817699 115.59563136 C-132.19077598 110.91934961 -132.19685078 106.24313258 -132.21146011 101.56687164 C-132.22512259 97.15760257 -132.22920527 92.74842436 -132.22621536 88.33913612 C-132.22676167 86.72838915 -132.23068717 85.11763887 -132.23841095 83.50691032 C-132.35738106 57.39686513 -124.65013283 34.70752136 -106.109375 15.94140625 C-98.41047695 8.48641933 -89.63186896 2.6662868 -80 -2 C-79.06671875 -2.45246094 -78.1334375 -2.90492188 -77.171875 -3.37109375 C-52.34517908 -14.55638322 -23.86434809 -12.11267154 0 0 Z " fill="#00CF6A" transform="translate(261,511)"/>
<path d="M0 0 C0.33 -4.95 0.66 -9.9 1 -15 C16.18 -15 31.36 -15 47 -15 C47 29.55 47 74.1 47 120 C54.26 120 61.52 120 69 120 C69 135.18 69 150.36 69 166 C47.42716789 166.48207446 32.37089126 165.5448845 15.69140625 150.7109375 C11 145.96535797 11 145.96535797 11 143 C10.55309814 143.33209473 10.10619629 143.66418945 9.64575195 144.00634766 C-12.42749411 160.2964202 -34.61026876 169.04660939 -62.25 165.3125 C-77.23337506 162.34898322 -90.3490854 155.73067127 -102 146 C-102.65484375 145.49082031 -103.3096875 144.98164062 -103.984375 144.45703125 C-118.87324732 132.39704467 -127.82602895 114.39026849 -132 96 C-132.17587646 95.26080322 -132.35175293 94.52160645 -132.53295898 93.76000977 C-133.95678684 87.36259739 -134.35030628 81.2312746 -134.3125 74.6875 C-134.30758545 73.6756665 -134.3026709 72.66383301 -134.29760742 71.62133789 C-134.17938218 64.06401681 -133.35951279 57.21173667 -131 50 C-130.6596875 48.87851562 -130.319375 47.75703125 -129.96875 46.6015625 C-121.82603247 21.67824465 -105.14593289 3.89593295 -82 -8 C-55.08841275 -20.46076907 -24.20777392 -16.64284457 0 0 Z " fill="#01CF6A" transform="translate(460,516)"/>
<path d="M0 0 C15.18 0 30.36 0 46 0 C46 44.88 46 89.76 46 136 C53.26 136 60.52 136 68 136 C68 150.85 68 165.7 68 181 C61.6578125 181.12375 61.6578125 181.12375 55.1875 181.25 C53.8780542 181.28641602 52.5686084 181.32283203 51.21948242 181.36035156 C38.27516 181.48133566 26.84311175 177.25600933 17.22265625 168.4609375 C14.76636264 166.01521618 12.36749424 163.53139769 10 161 C9.34 160.34 8.68 159.68 8 159 C7.58492187 159.4125 7.16984375 159.825 6.7421875 160.25 C-10.28018695 176.20402459 -31.92103313 181.83376568 -54.7109375 181.28515625 C-76.4659368 180.36031725 -94.87565423 170.10286233 -110 155 C-111.11375 153.90365234 -111.11375 153.90365234 -112.25 152.78515625 C-127.57432891 136.7125691 -135.71040384 112.51905743 -135.33618164 90.53173828 C-134.42346435 64.41266953 -124.62176235 40.42276705 -105.62890625 22.22265625 C-86.32075544 5.89823157 -64.06484897 -0.90806992 -39 1 C-24.59728793 2.88051605 -12.27479964 8.45765324 0 16 C0 10.72 0 5.44 0 0 Z " fill="#0134C9" transform="translate(461,252)"/>
<path d="M0 0 C1.22170898 0.00644531 2.44341797 0.01289063 3.70214844 0.01953125 C27.5187877 0.4972469 47.94555839 10.76406173 65.125 26.9375 C77.41138204 40.00876149 85.69492084 56.01503405 89.3125 73.5 C89.57401855 74.67900879 89.57401855 74.67900879 89.84082031 75.88183594 C92.0822286 88.32327612 91.14671802 102.49939554 87.3125 114.5 C87.04566406 115.46292969 86.77882813 116.42585938 86.50390625 117.41796875 C79.39993599 141.31888201 62.77695364 159.70009648 41.13476562 171.53808594 C28.19318997 178.36951789 15.06857586 181.06460432 0.5 180.9375 C-0.72541504 180.92992676 -1.95083008 180.92235352 -3.21337891 180.91455078 C-12.63903717 180.74362885 -20.81014877 179.71992062 -29.6875 176.5 C-30.87988281 176.07589844 -32.07226562 175.65179688 -33.30078125 175.21484375 C-56.64313718 166.05647678 -73.75515816 148.05217291 -83.86669922 125.453125 C-85.90865505 120.59421761 -87.41231457 115.60705454 -88.6875 110.5 C-88.86265137 109.83734131 -89.03780273 109.17468262 -89.21826172 108.49194336 C-90.67454788 102.61028804 -91.07319689 96.98605777 -91.0625 90.9375 C-91.06088867 89.97803467 -91.05927734 89.01856934 -91.05761719 88.0300293 C-90.90983328 79.34048049 -89.37814936 71.75751012 -86.6875 63.5 C-86.37554688 62.49710937 -86.06359375 61.49421875 -85.7421875 60.4609375 C-78.32791206 38.34272086 -62.10811306 20.46213433 -41.6875 9.5 C-28.41010591 2.9735306 -14.79322142 -0.08248242 0 0 Z " fill="#0134C9" transform="translate(713.6875,252.5)"/>
<path d="M0 0 C21.11439932 -0.09033939 42.22864184 -0.16400477 63.34318542 -0.20724869 C73.14731776 -0.22786243 82.95132138 -0.25596035 92.75537109 -0.30175781 C101.3018884 -0.34166192 109.84831247 -0.36744145 118.39492035 -0.37635398 C122.91913904 -0.38156267 127.44309102 -0.39378023 131.96722412 -0.42292023 C136.22881614 -0.45014584 140.49003253 -0.45843062 144.75170326 -0.45243073 C146.31254431 -0.45352778 147.87339841 -0.46143919 149.43416405 -0.4768219 C158.75062688 -0.56411088 165.91717653 -0.45411186 173.2421875 5.96484375 C178.35028657 12.13611177 180.19285922 16.17097688 180.36328125 24.20703125 C179.26199775 32.67388823 174.85396824 38.30693773 169.6875 44.8125 C168.23171274 46.68253567 166.77731152 48.55365108 165.32421875 50.42578125 C164.59509277 51.36115723 163.8659668 52.2965332 163.11474609 53.26025391 C160.00531423 57.28865894 156.99932515 61.38933132 154 65.5 C148.41491704 73.12850334 142.70720892 80.65648183 136.9609375 88.1640625 C132.57935674 93.89902727 128.26457042 99.67759563 124 105.5 C118.4133758 113.12740017 112.70723662 120.65644565 106.9609375 128.1640625 C102.00208652 134.6546049 97.14062926 141.21053767 92.31542969 147.80078125 C87.01921382 155.01600378 81.59760676 162.13314984 76.15234375 169.23632812 C75.50910156 170.07615234 74.86585938 170.91597656 74.203125 171.78125 C73.63239258 172.52439453 73.06166016 173.26753906 72.47363281 174.03320312 C71.2622123 175.65003607 70.12067129 177.31899306 69 179 C105.63 179.33 142.26 179.66 180 180 C180 194.85 180 209.7 180 225 C158.9987156 225.06773823 137.99751975 225.12299419 116.99615383 225.15543652 C107.24471054 225.17090088 97.49333997 225.19198221 87.74194336 225.22631836 C79.24194781 225.25623385 70.74200493 225.27557813 62.2419582 225.28226548 C57.74185576 225.28617409 53.24190401 225.29535095 48.7418499 225.31719017 C44.50410647 225.33758928 40.26657548 225.34382688 36.02878761 225.33932304 C34.47559835 225.34014671 32.9224018 225.34609201 31.36925507 225.35761642 C29.24322107 225.37261466 27.11798175 225.36892763 24.9919281 225.36076355 C23.80373694 225.36352893 22.61554579 225.36629431 21.39134884 225.36914349 C14.39423154 224.60751724 8.63387072 221.25324948 4 216 C0.11902195 210.04155723 -1.10918584 204.00077721 0 197 C2.68282927 190.06213817 6.77221471 184.28532882 11.4375 178.5625 C12.69093551 176.98867592 13.94217264 175.41309894 15.19140625 173.8359375 C15.82578613 173.03639648 16.46016602 172.23685547 17.11376953 171.41308594 C20.1199963 167.56717015 22.99832365 163.63073981 25.875 159.6875 C30.83974332 152.8978024 35.88666704 146.17850123 41 139.5 C46.0666281 132.88061726 51.07435459 126.22496793 56 119.5 C61.5866242 111.87259983 67.29276338 104.34355435 73.0390625 96.8359375 C77.99791348 90.3453951 82.85937074 83.78946233 87.68457031 77.19921875 C92.98078618 69.98399622 98.40239324 62.86685016 103.84765625 55.76367188 C104.49089844 54.92384766 105.13414062 54.08402344 105.796875 53.21875 C106.36760742 52.47560547 106.93833984 51.73246094 107.52636719 50.96679688 C108.7377877 49.34996393 109.87932871 47.68100694 111 46 C74.37 45.67 37.74 45.34 0 45 C0 30.15 0 15.3 0 0 Z " fill="#0033C9" transform="translate(129,208)"/>
<path d="M0 0 C16.17 0 32.34 0 49 0 C58.79710995 23.39892279 68.43462318 46.8519013 77.92279053 70.37731934 C81.45459119 79.13255172 85.00681171 87.87944725 88.5625 96.625 C89.12256949 98.00292526 89.68262848 99.38085479 90.24267578 100.75878906 C91.49481374 103.83931613 92.74728579 106.91970721 94 110 C97.58731842 103.03561457 100.81104905 95.97596646 103.8515625 88.7578125 C104.30404358 87.69132477 104.75652466 86.62483704 105.22271729 85.52603149 C106.19129777 83.24248924 107.15850658 80.95836476 108.12445068 78.67370605 C110.67510913 72.64155703 113.23638913 66.61392007 115.796875 60.5859375 C116.18488344 59.67198967 116.18488344 59.67198967 116.58073044 58.73957825 C121.9655579 46.05621105 127.40801356 33.39813629 132.875 20.75 C133.28486145 19.80094788 133.6947229 18.85189575 134.11700439 17.87408447 C135.26207979 15.22299293 136.40810942 12.57231694 137.5546875 9.921875 C137.89211975 9.14115631 138.229552 8.36043762 138.57720947 7.55606079 C140.88254338 2.23491324 140.88254338 2.23491324 142 0 C158.5 0 175 0 192 0 C185.06517909 16.71405111 178.01813215 33.37410791 170.875 50 C169.82668995 52.4426514 168.77849059 54.88534996 167.73046875 57.328125 C165.83451414 61.74701165 163.93817613 66.16573334 162.04130936 70.58422852 C157.184355 81.89802009 152.33500063 93.21506662 147.48590088 104.53222656 C144.99092773 110.35495791 142.4954364 116.17746717 140 122 C138.99999754 124.33333228 137.99999754 126.66666561 137 129 C133.49890137 137.16923014 129.99780273 145.33846029 126.4967041 153.50769043 C125.75293518 155.24315125 125.75293518 155.24315125 124.99414062 157.01367188 C124.49889893 158.16923584 124.00365723 159.3247998 123.4934082 160.51538086 C122.75417114 162.24026733 122.75417114 162.24026733 122 164 C119.03515625 170.91796875 116.0703125 177.8359375 113.10546875 184.75390625 C112.60128418 185.93033691 112.09709961 187.10676758 111.57763672 188.31884766 C110.20994568 191.51012675 108.84225464 194.70140584 107.4745636 197.89268494 C107.19034042 198.55587234 106.90611725 199.21905975 106.61328125 199.90234375 C106.18567757 200.90008568 106.18567757 200.90008568 105.74943542 201.91798401 C105.46385269 202.58434372 105.17826996 203.25070343 104.8840332 203.93725586 C104.59831451 204.6039328 104.31259583 205.27060974 104.01821899 205.95748901 C103.73376923 206.62120514 103.44931946 207.28492126 103.15625 207.96875 C101.75486755 211.23864237 100.35348511 214.50853475 98.95210266 217.77842712 C98.68044785 218.41228836 98.40879303 219.0461496 98.12890625 219.69921875 C94.0859375 229.1328125 90.04296875 238.56640625 86 248 C69.5 248 53 248 36 248 C41.62497738 233.37505882 41.62497738 233.37505882 43.72314453 228.49462891 C44.42880051 226.84824936 44.42880051 226.84824936 45.14871216 225.16860962 C45.63846527 224.03273407 46.12821838 222.89685852 46.6328125 221.7265625 C47.15132782 220.51858002 47.66984314 219.31059753 48.20407104 218.06600952 C49.56520713 214.89504592 50.92923585 211.72533523 52.29394531 208.5559082 C53.68081008 205.33360696 55.06489953 202.11011418 56.44921875 198.88671875 C58.47653881 194.16683954 60.50532378 189.44759322 62.53564453 184.72900391 C62.96298889 183.72637512 63.39033325 182.72374634 63.83062744 181.69073486 C64.53752392 180.06416087 65.26599977 178.4464134 66.03411865 176.84783936 C67.82104552 173.09305817 68.35970626 170.96299418 67 167 C66.15211107 164.69684781 65.25356709 162.41213051 64.32421875 160.140625 C64.0476947 159.46119339 63.77117065 158.78176178 63.48626709 158.08174133 C62.55752678 155.80276261 61.62247797 153.52642601 60.6875 151.25 C60.01594927 149.60555399 59.34481799 147.96093663 58.67407227 146.31616211 C57.22072332 142.75452209 55.7646871 139.19399685 54.30664062 135.63427734 C51.97532339 129.94187452 49.65107782 124.24660164 47.328125 118.55078125 C44.00304422 110.39902747 40.67610634 102.24803487 37.34765625 94.09765625 C32.16024656 81.39413988 26.97525748 68.68963867 21.79519653 55.98312378 C20.86815704 53.70949951 19.94082263 51.43599545 19.01315308 49.16262817 C16.00013186 41.77857606 12.99563575 34.39112224 10 27 C9.53082153 25.84371094 9.06164307 24.68742188 8.57824707 23.49609375 C7.1653549 20.00941169 5.75767696 16.52067013 4.3515625 13.03125 C3.91460052 11.9539563 3.47763855 10.8766626 3.0274353 9.76672363 C2.43111801 8.28214661 2.43111801 8.28214661 1.82275391 6.76757812 C1.46984283 5.8929895 1.11693176 5.01840088 0.75332642 4.11730957 C0 2 0 2 0 0 Z " fill="#01CF6A" transform="translate(524,501)"/>
<path d="M0 0 C2.2806114 -0.00418316 4.56122073 -0.00966602 6.84182626 -0.01631981 C13.04929652 -0.03066437 19.25663277 -0.02656435 25.46411002 -0.019153 C31.4901995 -0.01488608 37.51625685 -0.02475832 43.54233667 -0.03406062 C56.6151182 -0.05364592 69.68785991 -0.05609058 82.76065261 -0.05086542 C94.20452852 -0.04629406 105.64838876 -0.04692502 117.09226418 -0.05270576 C118.63208507 -0.05346266 120.17190596 -0.05421864 121.71172685 -0.05497371 C124.03260221 -0.05611901 126.35347756 -0.05726889 128.67435291 -0.05843295 C150.22956191 -0.06912561 171.78476572 -0.07387599 193.33997631 -0.06596279 C194.15115602 -0.06566562 194.96233573 -0.06536844 195.79809664 -0.06506227 C202.38385762 -0.06261377 208.96961854 -0.06000196 215.55537946 -0.05737813 C241.23049206 -0.04728021 266.90553922 -0.0556275 292.5806427 -0.07887268 C321.48315279 -0.10499801 350.38562351 -0.11777907 379.28814584 -0.11068493 C382.3753788 -0.10996896 385.46261177 -0.10929457 388.54984474 -0.10864449 C389.30989745 -0.10847468 390.06995016 -0.10830487 390.85303477 -0.10812991 C402.28041738 -0.10583576 413.7077632 -0.11376151 425.13513756 -0.12693596 C438.14553076 -0.14190948 451.15583827 -0.14260765 464.16622975 -0.12486505 C470.794286 -0.11619603 477.42221459 -0.11412368 484.05027199 -0.1295166 C490.13570807 -0.14347347 496.22084291 -0.13846078 502.30626205 -0.11927737 C504.48979632 -0.11555048 506.67335536 -0.11834173 508.85686734 -0.12888902 C556.08870173 -0.34053787 602.6875272 14.63041759 639.65559387 44.38768005 C640.67653137 45.20494568 641.69746887 46.0222113 642.74934387 46.86424255 C656.29383202 57.91037345 668.35098438 70.27020071 678.65559387 84.38768005 C679.43418762 85.4447113 680.21278137 86.50174255 681.01496887 87.59080505 C697.64661106 110.87510411 709.23373227 137.18461501 715.46809387 165.07518005 C715.76054993 166.37213806 715.76054993 166.37213806 716.05891418 167.69529724 C719.49262914 184.07660053 719.94842724 200.41773359 719.91629028 217.08779907 C719.91931679 219.33495962 719.92320876 221.58211914 719.92788285 223.82927686 C719.93810724 229.95808015 719.93599528 236.08682457 719.93170226 242.21563256 C719.92947987 248.1614013 719.93666084 254.10715711 719.94346251 260.05292075 C719.95864963 273.70259831 719.96041303 287.35225722 719.95793948 301.00194146 C719.95610207 311.54765596 719.9578758 322.0933644 719.96216393 332.63907814 C719.96276634 334.15775736 719.96336754 335.67643659 719.96396753 337.19511581 C719.96487485 339.48403019 719.96578352 341.77294457 719.96669988 344.06185895 C719.97512152 365.32520406 719.97947058 386.58854689 719.97529316 407.85189342 C719.97513678 408.65238395 719.97498041 409.45287448 719.97481929 410.2776223 C719.97401359 414.33420365 719.97316782 418.39078499 719.97230599 422.44736632 C719.9721349 423.25291878 719.97196382 424.05847124 719.97178754 424.88843439 C719.97144088 426.51745468 719.97109235 428.14647497 719.97074196 429.77549525 C719.9653866 455.11441763 719.97331315 480.45330519 719.99177551 505.79222107 C720.01252695 534.30573529 720.02321222 562.81922795 720.01920003 591.33275014 C720.01880472 594.3775678 720.01844317 597.42238547 720.01810265 600.46720314 C720.01801191 601.21683242 720.01792118 601.96646169 720.0178277 602.73880701 C720.01666547 614.01730896 720.02328139 625.29578902 720.03391457 636.57428551 C720.04600702 649.41318012 720.0474792 662.25202676 720.0351244 675.09092214 C720.02910896 681.63350877 720.02808335 688.17602091 720.0401268 694.71860313 C720.05104971 700.72253684 720.0478067 706.72629956 720.03386512 712.73022548 C720.03123571 714.88755203 720.03352856 717.04489227 720.04160098 719.20220532 C720.24802683 778.54736885 698.34615943 832.12791263 656.65559387 874.38768005 C626.39338967 904.66020913 584.96305421 925.24001916 542.65559387 931.38768005 C541.5264658 931.55332637 540.39733773 931.7189727 539.23399365 931.8896386 C527.16850271 933.54015825 515.23727012 933.67178757 503.07572937 933.64837646 C500.82943188 933.6514024 498.58313541 933.65529409 496.33684075 933.65996903 C490.20577814 933.6702009 484.07477432 933.66807952 477.94370699 933.66378844 C471.99716552 933.66156722 466.05063701 933.66874531 460.10410064 933.67554869 C446.45101734 933.69074123 432.79795268 933.69249862 419.1448627 933.69002566 C408.59626387 933.68818863 398.0476711 933.6899612 387.49907303 933.69425011 C385.98025695 933.69485252 384.46144087 933.69545372 382.94262479 933.69605371 C380.65352651 933.69696103 378.36442823 933.6978697 376.07532996 933.69878606 C354.80805699 933.70720862 333.54078629 933.71155616 312.27351189 933.70737934 C311.47275534 933.70722297 310.6719988 933.70706659 309.8469769 933.70690547 C305.78900473 933.70609977 301.73103256 933.70525399 297.6730604 933.70439217 C296.8672256 933.70422108 296.0613908 933.70405 295.23113676 933.70387372 C293.6015448 933.70352707 291.97195285 933.70317854 290.34236089 933.70282814 C264.99688833 933.69747327 239.65145057 933.70539756 214.3059845 933.72386169 C185.78771651 933.7446132 157.26947008 933.75529834 128.75119412 933.75128621 C125.70579919 933.7508909 122.66040425 933.75052935 119.61500931 933.75018883 C118.49034564 933.75005273 118.49034564 933.75005273 117.3429615 933.74991388 C106.06181644 933.74875161 94.78069327 933.75536794 83.49955368 933.76600075 C70.65697505 933.77809339 57.81444438 933.77956522 44.97186498 933.76721058 C38.42726004 933.7611951 31.88272957 933.76016961 25.33812904 933.77221298 C19.33230503 933.78313587 13.32665196 933.7798929 7.32083572 933.7659513 C5.16280634 933.76332188 3.00476327 933.7656148 0.84674738 933.77368716 C-17.97285133 933.83912722 -36.66659307 932.29395323 -54.96940613 927.70018005 C-56.51567688 927.31781189 -56.51567688 927.31781189 -58.09318542 926.92771912 C-93.74556032 917.75503402 -124.89229492 898.65052741 -151.34440613 873.38768005 C-152.73272644 872.07863708 -152.73272644 872.07863708 -154.14909363 870.7431488 C-187.89019979 838.10125714 -211.53355756 788.16462664 -213.43789425 741.07599428 C-213.47397235 738.61766993 -213.4809069 736.16108755 -213.47583389 733.7025032 C-213.47788653 732.76473948 -213.47993916 731.82697576 -213.482054 730.86079496 C-213.48769942 727.72474411 -213.48626978 724.58873751 -213.48484802 721.4526825 C-213.48743308 719.17886643 -213.49044663 716.90505082 -213.49385142 714.63123584 C-213.50190838 708.38704029 -213.50371027 702.14285626 -213.50444889 695.89865613 C-213.50611141 689.85419569 -213.51243112 683.80974113 -213.5185273 677.76528397 C-213.5345663 661.57553331 -213.54048854 645.38578363 -213.54527605 629.19602645 C-213.54761446 621.53118632 -213.55121742 613.86634694 -213.55497143 606.20150739 C-213.5678061 579.94427694 -213.57852454 553.6870469 -213.58197403 527.42981339 C-213.58219566 525.78234861 -213.58241744 524.13488383 -213.58263938 522.48741905 C-213.58286002 520.83605674 -213.5830805 519.18469442 -213.58330083 517.53333211 C-213.58374337 514.22062127 -213.58419049 510.90791043 -213.5846405 507.59519958 C-213.58474989 506.77384349 -213.58485928 505.9524874 -213.58497199 505.10624173 C-213.5886002 478.49166136 -213.60451178 451.87710826 -213.62783087 425.26253833 C-213.65246159 397.09926727 -213.6661484 368.93601178 -213.66734195 340.77272964 C-213.66751339 337.67725483 -213.66772881 334.58178003 -213.66797638 331.48630524 C-213.66806003 330.34308349 -213.66806003 330.34308349 -213.66814538 329.17676636 C-213.6692931 316.94386199 -213.6802915 304.71098575 -213.69486343 292.47809086 C-213.70927461 280.1666159 -213.71243948 267.85517675 -213.70442346 255.54369566 C-213.70037687 248.88192823 -213.70139475 242.22023486 -213.7154808 235.55847359 C-213.72828331 229.4475826 -213.72696674 223.33685572 -213.71489009 217.22596475 C-213.71294403 215.0273536 -213.7159604 212.82873055 -213.72473446 210.63013604 C-213.79224273 192.55452146 -212.21579768 174.9335188 -207.65690613 157.38768005 C-207.40054382 156.39260437 -207.14418152 155.39752869 -206.88005066 154.37229919 C-200.72101851 131.30249197 -190.58644476 108.63821557 -176.34440613 89.38768005 C-175.9607489 88.86560974 -175.57709167 88.34353943 -175.18180847 87.8056488 C-161.7601383 69.6334628 -145.89699485 52.39711727 -127.34440613 39.38768005 C-126.80235535 38.99596619 -126.26030457 38.60425232 -125.701828 38.20066833 C-104.83712217 23.15656265 -81.20232742 12.47935021 -56.34440613 6.07518005 C-55.45696716 5.844599 -54.5695282 5.61401794 -53.65519714 5.37644958 C-35.88303843 1.07905099 -18.21680554 -0.05515815 0 0 Z M-49.34440613 9.38768005 C-50.07159851 9.55106873 -50.79879089 9.7144574 -51.54801941 9.88279724 C-79.45525229 16.29239732 -105.68056851 28.91868548 -128.34440613 46.38768005 C-129.34471863 47.15725037 -130.34503113 47.92682068 -131.37565613 48.7197113 C-141.41505907 56.72526968 -151.24280757 65.39684318 -159.34440613 75.38768005 C-160.25568022 76.47507406 -161.16715796 77.56229743 -162.07878113 78.6493988 C-197.0463629 120.81917443 -209.52213971 170.18323204 -209.4781189 224.00608826 C-209.47998965 226.18451158 -209.4822914 228.36293457 -209.48498422 230.54135704 C-209.49107604 236.49868902 -209.49097172 242.45600691 -209.48978984 248.41334128 C-209.48958517 254.84984282 -209.49511095 261.28633991 -209.49984741 267.72283936 C-209.50835641 280.32285517 -209.51091463 292.92286699 -209.51145979 305.52288538 C-209.51192023 315.76978945 -209.51398322 326.01669201 -209.51716042 336.26359558 C-209.51805803 339.21859868 -209.51894785 342.17360179 -209.51983529 345.12860489 C-209.52005634 345.86333792 -209.52027739 346.59807094 -209.52050514 347.35506861 C-209.52665537 368.00896466 -209.53060611 388.66286019 -209.53016186 409.3167572 C-209.53014628 410.09471125 -209.5301307 410.8726653 -209.53011465 411.67419371 C-209.53003155 415.61672153 -209.52993251 419.55924935 -209.52982994 423.50177717 C-209.52981 424.28470316 -209.52979005 425.06762914 -209.5297695 425.87428015 C-209.52972906 427.45754661 -209.52968727 429.04081307 -209.52964411 430.62407953 C-209.52903168 455.24401608 -209.53653357 479.86393885 -209.55021667 504.48387146 C-209.56560263 532.17881067 -209.57418137 559.87374083 -209.57325345 587.56868458 C-209.57317883 590.52620252 -209.57313012 593.48372046 -209.57309914 596.4412384 C-209.57308748 597.1693907 -209.57307583 597.89754299 -209.57306382 598.6477605 C-209.57303315 610.32693454 -209.57939821 622.00609653 -209.5880314 633.68526699 C-209.59653982 645.43940186 -209.59730256 657.19351778 -209.59092208 668.94765407 C-209.58766761 675.30577927 -209.58756124 681.66386117 -209.59627533 688.02198219 C-209.60418896 693.85636783 -209.60265971 699.69067619 -209.5939912 705.52506006 C-209.59246684 707.62192392 -209.59423159 709.71879369 -209.59985127 711.81565058 C-209.73332276 765.20613897 -195.81496634 815.42078078 -160.34440613 856.38768005 C-159.63928894 857.20365662 -158.93417175 858.01963318 -158.20768738 858.8603363 C-123.37864074 898.31658124 -74.34322218 924.82888681 -21.34440613 928.38768005 C-4.89060417 929.16528613 11.61825393 928.92495755 28.08498788 928.88126063 C34.079837 928.86933725 40.07464763 928.87648143 46.06949791 928.88291905 C58.31287841 928.89538552 70.55618129 928.88922316 82.79955292 928.8717308 C94.9120633 928.85442998 107.02453877 928.84469219 119.13706207 928.84506607 C119.89391975 928.84508136 120.65077743 928.84509665 121.43057018 928.84511241 C124.50358757 928.84519424 127.57660495 928.84532548 130.64962234 928.84552403 C159.40098204 928.84733106 188.15228879 928.82752176 216.90363013 928.7966647 C242.41194215 928.76938917 267.92021662 928.75694379 293.42854309 928.75828552 C295.06839952 928.75836635 296.70825595 928.75844707 298.34811237 928.75852768 C299.158855 928.75856838 299.96959762 928.75860908 300.8049082 928.75865102 C304.88663827 928.75885263 308.96836834 928.75903379 313.05009842 928.75919151 C313.85548161 928.75922494 314.66086479 928.75925837 315.49065353 928.75929281 C336.85705687 928.76002381 358.22345553 928.75093947 379.58985496 928.73853838 C380.35022535 928.73809784 381.11059575 928.7376573 381.89400767 928.7372034 C384.95109678 928.73542713 388.00818589 928.73365029 391.06527496 928.73182149 C401.6746699 928.72551672 412.28406114 928.72248496 422.89345783 928.72159851 C436.56003881 928.7204021 450.22658892 928.71236775 463.89315674 928.6927356 C470.47745714 928.68343897 477.06172797 928.67739959 483.64603615 928.67992401 C489.67940213 928.68212503 495.71268458 928.67501097 501.74603316 928.66062696 C503.92177577 928.65702131 506.09752705 928.65671906 508.27326992 928.66016154 C540.08744489 928.7049038 571.00744312 922.61584266 599.65559387 908.38768005 C600.72366272 907.86585144 600.72366272 907.86585144 601.81330872 907.33348083 C648.87518858 884.15786499 686.44009119 841.79492607 703.63630676 792.19920349 C705.05067925 787.95029416 706.38137515 783.68057311 707.65559387 779.38768005 C707.86941711 778.66789978 708.08324036 777.94811951 708.30354309 777.20652771 C710.68749939 769.03880151 712.60478593 760.83575977 713.65559387 752.38768005 C713.73878834 751.74687972 713.82198282 751.10607939 713.90769833 750.44586086 C715.04986791 740.12341805 714.80413852 729.73639275 714.80276489 719.36643982 C714.80606755 717.10754808 714.80979396 714.84865692 714.81390637 712.5897665 C714.82388895 706.39587945 714.82763712 700.20200209 714.83029568 694.00810814 C714.83380761 688.00915948 714.84195603 682.01021807 714.84983962 676.011274 C714.87063804 659.94577125 714.88114731 643.88026673 714.88996923 627.81475367 C714.89418309 620.2052632 714.89940413 612.59577351 714.90465375 604.9862837 C714.92254167 578.90748359 714.93753419 552.82868325 714.94497395 526.74987793 C714.94544869 525.11401159 714.94592458 523.47814524 714.94640161 521.8422789 C714.94663798 521.03108462 714.94687436 520.21989035 714.9471179 519.38411443 C714.94831902 515.27462589 714.9495345 511.16513734 714.95075989 507.0556488 C714.95112011 505.83236695 714.95112011 505.83236695 714.95148761 504.58437233 C714.95937245 478.17059318 714.98278861 451.75685905 715.01531583 425.34309955 C715.04968976 397.37833844 715.06933214 369.41360364 715.07261819 341.44882107 C715.07303568 338.37292924 715.07351523 335.29703744 715.07404137 332.22114563 C715.07416456 331.46384479 715.07428775 330.70654395 715.07441467 329.9262946 C715.07673745 317.78951683 715.09234562 305.65279174 715.11288321 293.51603268 C715.1332385 281.29206782 715.13857302 269.06816557 715.12911258 256.8441869 C715.12438675 250.23429676 715.12634346 243.62454019 715.14587402 237.0146637 C715.61097454 192.5790412 715.61097454 192.5790412 706.40559387 149.32518005 C706.01355774 148.11748962 705.62152161 146.90979919 705.21760559 145.66551208 C687.96908525 93.66946832 650.50053122 51.07625451 601.96443176 25.90403748 C568.44123585 9.13393713 533.0591574 4.22368763 496.03718567 4.25396729 C493.85876234 4.25209653 491.68033935 4.24979478 489.50191689 4.24710196 C483.54458491 4.24101014 477.58726702 4.24111446 471.62993264 4.24229634 C465.19343111 4.24250101 458.75693402 4.23697523 452.32043457 4.23223877 C439.72041875 4.22372977 427.12040693 4.22117155 414.52038854 4.22062639 C404.27348448 4.22016595 394.02658192 4.21810296 383.77967834 4.21492577 C380.82467524 4.21402815 377.86967214 4.21313833 374.91466904 4.21225089 C373.8125695 4.21191932 373.8125695 4.21191932 372.68820532 4.21158105 C352.03430926 4.20543081 331.38041373 4.20148007 310.72651672 4.20192432 C309.94856268 4.2019399 309.17060863 4.20195548 308.36908022 4.20197153 C304.42655239 4.20205463 300.48402457 4.20215367 296.54149675 4.20225624 C295.75857077 4.20227619 294.97564479 4.20229613 294.16899377 4.20231668 C292.58572731 4.20235712 291.00246086 4.20239892 289.4191944 4.20244207 C264.79925785 4.2030545 240.17933508 4.19555261 215.55940247 4.18186951 C187.86446325 4.16648355 160.1695331 4.15790481 132.47458935 4.15883273 C129.51707141 4.15890735 126.55955346 4.15895606 123.60203552 4.15898705 C122.50980708 4.15900453 122.50980708 4.15900453 121.39551342 4.15902236 C109.71633939 4.15905304 98.03717739 4.15268797 86.35800693 4.14405478 C74.60387207 4.13554636 62.84975615 4.13478362 51.09561986 4.1411641 C44.73749466 4.14441857 38.37941276 4.14452494 32.02129173 4.13581085 C26.18690609 4.12789722 20.35259773 4.12942647 14.51821387 4.13809498 C12.42135 4.13961934 10.32448023 4.1378546 8.22762334 4.13223491 C-11.13553328 4.08382873 -30.41278121 5.05706516 -49.34440613 9.38768005 Z " fill="#EAEAEA" transform="translate(213.3444061279297,-0.3876800537109375)"/>
<path d="M0 0 C15.18 0 30.36 0 46 0 C46 59.73 46 119.46 46 181 C53.26 181 60.52 181 68 181 C68 195.85 68 210.7 68 226 C62.1528125 226.0928125 62.1528125 226.0928125 56.1875 226.1875 C54.98246826 226.21481201 53.77743652 226.24212402 52.53588867 226.27026367 C37.38296612 226.38521773 26.2600054 221.62501669 15.2890625 211.31640625 C6.01876065 201.93536701 -0.17620146 189.58048276 -0.25816262 176.20384264 C-0.25233693 175.51899278 -0.24651125 174.83414292 -0.24050903 174.12854004 C-0.24221788 173.37849811 -0.24392673 172.62845618 -0.24568737 171.85568571 C-0.24895773 169.36527897 -0.23801947 166.87514716 -0.22705078 164.38476562 C-0.22648614 162.59050503 -0.22680427 160.79624397 -0.22793579 159.00198364 C-0.22850822 154.14719951 -0.21677166 149.29251477 -0.20278788 144.43775368 C-0.19026224 139.35820651 -0.18910857 134.27865691 -0.18673706 129.19909668 C-0.18052768 119.58744767 -0.16412419 109.97584431 -0.14403808 100.36421537 C-0.12166221 89.41865805 -0.1106814 78.47309851 -0.10064721 67.52752399 C-0.07975749 45.01831822 -0.04308801 22.50917499 0 0 Z " fill="#0134C9" transform="translate(546,207)"/>
<path d="M0 0 C1.36125 0.928125 1.36125 0.928125 2.75 1.875 C11.48867217 10.12819038 17.08292551 20.99758644 18 33 C18.24224872 44.54243896 14.97067888 54.78071503 8 64 C7.195625 65.2065625 7.195625 65.2065625 6.375 66.4375 C-1.77328031 75.22906559 -13.01629942 80.26442183 -24.91015625 81.23828125 C-39.09480962 81.57224459 -49.80688979 76.83332537 -60.1875 67.375 C-68.95265641 58.25993714 -72.39493116 46.4395812 -72.29541016 34.06201172 C-72.01137133 21.84834206 -67.11061556 12.15699727 -58.875 3.25 C-42.22247263 -12.6430371 -18.35780413 -12.72491044 0 0 Z " fill="#FDFDFE" transform="translate(741,307)"/>
<path d="M0 0 C9.31945322 7.16266548 16.44230738 17.70946963 18.3125 29.4375 C19.31083264 43.74053489 16.55187084 55.73049843 7.30859375 66.84765625 C-0.44054674 75.15129696 -10.32035569 81.07483776 -21.8515625 81.80859375 C-36.58485573 82.21229058 -47.86734379 78.72004669 -58.73828125 68.51171875 C-68.16104017 58.80503489 -72.10032504 47.29164869 -71.96484375 33.984375 C-71.01380018 21.82173331 -65.70230774 11.55082697 -56.6875 3.4375 C-55.800625 2.6125 -54.91375 1.7875 -54 0.9375 C-38.58685777 -11.68051281 -15.9770832 -10.61506073 0 0 Z " fill="#FDFEFE" transform="translate(245.6875,554.5625)"/>
<path d="M0 0 C9.22593013 6.74390999 15.68514561 16.4089036 18.20703125 27.61328125 C18.48796882 30.39125198 18.54160808 33.13495455 18.51953125 35.92578125 C18.5138916 36.6741626 18.50825195 37.42254395 18.50244141 38.19360352 C18.23125725 50.59692234 13.42100992 60.3935496 4.95703125 69.42578125 C0.48438167 73.6808019 -4.10546412 76.29648623 -9.79296875 78.61328125 C-10.47617187 78.93167969 -11.159375 79.25007813 -11.86328125 79.578125 C-20.59445606 83.18014959 -31.86318562 82.96898542 -40.73046875 79.98828125 C-45.85245008 77.81625308 -50.33401678 74.91453372 -54.79296875 71.61328125 C-55.67984375 71.01515625 -56.56671875 70.41703125 -57.48046875 69.80078125 C-60.98598049 66.48475664 -63.38596695 62.7782765 -65.79296875 58.61328125 C-66.28539062 57.77152344 -66.7778125 56.92976563 -67.28515625 56.0625 C-72.33617475 45.9747314 -72.59582009 33.7941298 -69.87109375 22.94140625 C-67.47763699 16.817887 -64.11539287 11.54555234 -59.79296875 6.61328125 C-59.2928125 6.00871094 -58.79265625 5.40414063 -58.27734375 4.78125 C-42.99207374 -12.247728 -18.16293766 -11.82498203 0 0 Z " fill="#FDFDFE" transform="translate(442.79296875,306.38671875)"/>
<path d="M0 0 C0.65742188 0.26683594 1.31484375 0.53367187 1.9921875 0.80859375 C13.23537079 5.73022067 20.97112803 15.2678248 25.375 26.5 C28.84699769 37.92258063 28.40037429 50.300193 23 61 C22.57589844 61.86109375 22.15179688 62.7221875 21.71484375 63.609375 C15.91354614 74.27471322 7.13793541 80.50438082 -4 85 C-15.18727067 88.07138047 -28.51379364 86.85555692 -38.73046875 81.59375 C-50.637295 74.63030955 -57.80149565 65.35599773 -61.53759766 52.09130859 C-63.98014272 41.04440202 -62.82520014 28.68421182 -57 19 C-44.98599138 0.6222766 -21.0142945 -10.15544358 0 0 Z " fill="#FDFEFE" transform="translate(434,550)"/>
</svg>
